<svg width="45" height="24" viewBox="0 0 45 24" fill="none" xmlns="http://www.w3.org/2000/svg">
<path d="M14 17.25V21H17.75L28.81 9.94L25.06 6.19L14 17.25ZM31.71 7.04C31.8027 6.94749 31.8762 6.8376 31.9264 6.71663C31.9766 6.59565 32.0024 6.46597 32.0024 6.335C32.0024 6.20403 31.9766 6.07435 31.9264 5.95338C31.8762 5.83241 31.8027 5.72252 31.71 5.63L29.37 3.29C29.2775 3.1973 29.1676 3.12375 29.0466 3.07357C28.9257 3.02339 28.796 2.99756 28.665 2.99756C28.534 2.99756 28.4043 3.02339 28.2834 3.07357C28.1624 3.12375 28.0525 3.1973 27.96 3.29L26.13 5.12L29.88 8.87L31.71 7.04Z" fill="#2B2B2B"/>
</svg>
