<svg width="28" height="28" viewBox="0 0 28 28" fill="none" xmlns="http://www.w3.org/2000/svg">
<path d="M13.8857 26.5143C20.8603 26.5143 26.5143 20.8603 26.5143 13.8857C26.5143 6.91115 20.8603 1.25714 13.8857 1.25714C6.91115 1.25714 1.25714 6.91115 1.25714 13.8857C1.25714 20.8603 6.91115 26.5143 13.8857 26.5143Z" fill="#F42F4C" stroke="#A3A3A3" stroke-width="1.48571"/>
<path d="M20.8586 14.7177C20.3436 14.2819 19.4323 14.3611 18.7984 14.4007C19.5116 14.0441 20.6209 13.331 21.3737 13.9649C20.819 13.2121 19.5908 13.4499 18.838 13.6083C19.4719 13.1329 20.4624 12.3009 21.2944 12.7763C20.6209 12.1028 19.4323 12.5386 18.7192 12.8556C19.2739 12.3009 20.1059 11.3104 21.0171 11.6274C20.2643 11.0727 19.155 11.667 18.4815 12.1028C18.9173 11.4689 19.6304 10.3596 20.5813 10.5577C19.7493 10.1219 18.7588 10.9142 18.1645 11.3897C18.5211 10.6765 18.9965 9.48795 19.987 9.52757C19.0758 9.25024 18.2438 10.1615 17.7287 10.7558C17.9664 10.003 18.2438 8.73519 19.2342 8.61633C18.323 8.45786 17.6099 9.48795 17.2137 10.1615C17.3325 9.36909 17.4118 8.06167 18.3626 7.82395C17.4118 7.82395 16.8967 8.9729 16.5798 9.68605C16.5798 8.89367 16.4609 7.58624 17.3721 7.19005C16.4609 7.34852 16.1043 8.53709 15.9062 9.28986C15.7874 8.49748 15.4704 7.22967 16.2628 6.71462C15.3516 6.99195 15.2327 8.25976 15.1535 9.01252C14.9158 8.25976 14.4007 7.07119 15.1139 6.39767C14.2819 6.83348 14.3215 8.06167 14.3611 8.85405C14.0045 8.1409 13.2914 7.03157 13.9253 6.27881C13.1725 6.83348 13.4102 8.06167 13.5687 8.81443C13.0933 8.18052 12.2613 7.19005 12.7367 6.35805C12.0632 7.03157 12.499 8.18052 12.816 8.93328C12.2613 8.37862 11.2708 7.54662 11.5878 6.63538C11.0331 7.38814 11.6274 8.49747 12.0632 9.171C11.4293 8.73519 10.32 8.02205 10.518 7.07119C10.0822 7.90319 10.8746 8.89367 11.3897 9.48795C10.6765 9.13138 9.48795 8.65595 9.52757 7.66548C9.25024 8.53709 10.1615 9.40871 10.7558 9.92376C10.003 9.68605 8.73519 9.40871 8.61633 8.41824C8.45786 9.32947 9.48795 10.0426 10.1615 10.4388C9.36909 10.32 8.06167 10.2407 7.82395 9.28986C7.82395 10.2407 8.9729 10.7558 9.68605 11.0727C8.89367 11.0727 7.58624 11.1916 7.19005 10.2803C7.34852 11.1916 8.53709 11.5481 9.28986 11.7462C8.49748 11.8651 7.22967 12.182 6.71462 11.3897C6.99195 12.3009 8.25976 12.4198 9.01252 12.499C8.25976 12.7367 7.07119 13.2518 6.39767 12.5386C6.83348 13.3706 8.06167 13.331 8.85405 13.2914C8.1409 13.648 7.03157 14.3611 6.27881 13.7272C6.83348 14.48 8.06167 14.2422 8.81443 14.0838C8.18052 14.5592 7.19005 15.3912 6.35805 14.9158C7.03157 15.5893 8.18052 15.1535 8.93328 14.8365C8.37862 15.3912 7.54662 16.3817 6.63538 16.0647C7.38814 16.6194 8.49748 16.0251 9.171 15.5893C8.73519 16.2232 8.02205 17.3325 7.07119 17.1344C7.90319 17.5702 8.89367 16.7779 9.48795 16.2628C9.13138 16.976 8.65595 18.1645 7.66548 18.1249C8.57671 18.4022 9.40871 17.491 9.92376 16.8967C9.68605 17.6495 9.40871 18.9173 8.41824 19.0361C9.32947 19.1946 10.0426 18.1249 10.4388 17.491C10.32 18.2834 10.2407 19.5908 9.28986 19.8285C10.2407 19.8285 10.7558 18.6796 11.0727 17.9664C11.0727 18.7588 11.1916 20.0662 10.2803 20.4624C11.1916 20.3039 11.5481 19.1154 11.7462 18.3626C11.8651 19.155 12.182 20.4228 11.3897 20.9379C12.3009 20.6605 12.4198 19.3927 12.499 18.64C12.7367 19.3927 13.2518 20.5813 12.5386 21.2548C13.3706 20.819 13.331 19.5908 13.2914 18.7984C13.648 19.5116 14.3611 20.6209 13.7272 21.3737C14.48 20.819 14.2422 19.5908 14.0838 18.838C14.5592 19.472 15.3912 20.4624 14.9158 21.2944C15.5893 20.6209 15.1535 19.472 14.8365 18.7192C15.3912 19.2739 16.3817 20.1059 16.0647 21.0171C16.6194 20.2643 16.0251 19.155 15.5893 18.4815C16.2232 18.9173 17.3325 19.6304 17.1344 20.5813C17.5702 19.7493 16.7779 18.7588 16.3024 18.1645C17.0156 18.5211 18.2041 18.9965 18.1645 19.987C18.4419 19.0758 17.5306 18.2438 16.9363 17.7287C17.6891 17.9664 18.9569 18.2438 19.0758 19.2342C19.2342 18.2834 18.1645 17.6099 17.5306 17.2137C18.323 17.3325 19.5908 17.4118 19.8681 18.3626C19.8681 17.4118 18.7192 16.8967 18.006 16.5798C18.7984 16.5798 20.1059 16.4609 20.502 17.3721C20.3436 16.4213 19.155 16.1043 18.4022 15.9062C19.1946 15.7874 20.4624 15.4704 20.9775 16.2628C20.7001 15.3912 19.4323 15.1931 18.6796 15.1535C19.4323 14.8761 20.6209 14.4007 21.2944 15.1139C21.1756 14.9554 21.0171 14.8365 20.8586 14.7177ZM13.846 18.5607C12.0632 18.5607 10.3992 17.5306 9.60681 15.9459C8.77481 14.3611 8.9729 12.3801 10.0426 10.9142C11.1123 9.48795 12.9348 8.77481 14.7177 9.09176C16.4609 9.40871 17.8872 10.7161 18.4022 12.3801C19.3135 15.4308 16.976 18.5607 13.846 18.5607Z" fill="#FFE62E"/>
<path d="M10.9934 11.0332C10.2802 11.7463 9.88403 12.7368 9.88403 13.8065C9.88403 14.5989 10.1217 15.3517 10.5179 15.9856C10.8349 14.5197 11.5084 13.1726 12.38 12.0633C11.9838 11.6671 11.5084 11.3105 10.9934 11.0332ZM13.5686 10.7955C13.2517 10.5181 12.8951 10.2804 12.5385 10.0427C12.38 10.0823 12.2216 10.1616 12.0631 10.2408C12.4593 10.4785 12.8555 10.7955 13.2517 11.0728C13.3309 11.0332 13.4497 10.9143 13.5686 10.7955ZM12.9743 11.3897C12.5781 11.0332 12.1423 10.7558 11.6669 10.4785C11.548 10.5577 11.4292 10.6766 11.3103 10.7558C11.7857 11.0332 12.2612 11.3501 12.6574 11.7463C12.7366 11.6275 12.8555 11.5086 12.9743 11.3897ZM12.697 12.301C11.7857 13.4896 11.1518 14.8762 10.8349 16.3817C11.033 16.5798 11.2311 16.7779 11.4688 16.976C11.6273 15.3913 12.1819 13.9254 13.0536 12.6972C12.9347 12.5387 12.8158 12.4198 12.697 12.301ZM14.6383 12.6972C15.5099 13.9254 16.1042 15.3913 16.2231 16.976C16.4608 16.8176 16.6589 16.6195 16.857 16.3817C16.5797 14.8762 15.9061 13.4896 14.9949 12.301C14.876 12.4198 14.7572 12.5387 14.6383 12.6972ZM13.529 12.6972C13.6478 12.8557 13.7667 12.9745 13.8459 13.133C13.9648 12.9745 14.044 12.8557 14.1629 12.6972C14.044 12.5783 13.9648 12.4198 13.8459 12.301C13.7271 12.4198 13.6082 12.5387 13.529 12.6972ZM14.6779 9.92384C14.4006 9.88422 14.1233 9.8446 13.8459 9.8446C13.5686 9.8446 13.2913 9.88422 13.0139 9.92384C13.2913 10.1219 13.6082 10.32 13.8459 10.5577C14.1233 10.32 14.4006 10.1219 14.6779 9.92384Z" fill="#FFE62E"/>
<path d="M13.648 13.4896L13.2914 13.0142C12.4594 14.2423 11.9047 15.6686 11.7859 17.2138L12.499 17.5703V17.4515C12.5387 15.9856 12.9348 14.6385 13.648 13.4896ZM13.8461 11.7067L14.2027 11.3502C14.0838 11.2313 13.9649 11.1124 13.8461 11.0332C13.7272 11.1521 13.6084 11.2313 13.4895 11.3502L13.8461 11.7067ZM14.4404 12.3803C14.5592 12.2614 14.6781 12.1029 14.7969 11.9841C14.6781 11.8652 14.5988 11.7463 14.48 11.6275L14.1234 11.9841C14.2027 12.1425 14.3215 12.2614 14.4404 12.3803ZM13.2518 11.6671C13.1329 11.786 13.0537 11.9048 12.9348 12.0237C13.0537 12.1425 13.1726 12.2614 13.2914 12.4199C13.4103 12.301 13.4895 12.1425 13.6084 12.0237C13.4895 11.8652 13.3707 11.7463 13.2518 11.6671Z" fill="#FFE62E"/>
<path d="M13.8461 13.8461C13.2518 14.9158 12.8953 16.144 12.8953 17.4118V17.6495C13.2122 17.7288 13.5292 17.7684 13.8461 17.7684C14.1631 17.7684 14.48 17.7288 14.797 17.6495V17.4118C14.797 16.1044 14.4404 14.8762 13.8461 13.8461ZM14.0838 13.4895C14.797 14.6385 15.1932 15.9855 15.1932 17.4514V17.5703C15.4309 17.491 15.7082 17.3722 15.9063 17.2137C15.7875 15.6686 15.2724 14.2423 14.4008 13.0141C14.2819 13.1329 14.1631 13.2914 14.0838 13.4895ZM14.48 11.1124C14.8366 10.7954 15.2328 10.5181 15.6686 10.2804C15.5101 10.2011 15.3516 10.1219 15.1932 10.0823C14.8366 10.32 14.48 10.5577 14.1631 10.835C14.2423 10.9143 14.3612 11.0331 14.48 11.1124ZM17.1741 15.9855C17.5703 15.3516 17.808 14.5988 17.808 13.8065C17.808 12.7368 17.3722 11.7463 16.6987 11.0331C16.1836 11.3105 15.7082 11.6274 15.312 12.0236C16.1836 13.1726 16.8175 14.5196 17.1741 15.9855ZM15.0347 11.7463C15.4309 11.3897 15.9063 11.0331 16.3817 10.7558C16.2629 10.6369 16.144 10.5577 16.0252 10.4785C15.5497 10.7558 15.1535 11.0331 14.7177 11.3897C14.8366 11.5086 14.9555 11.6274 15.0347 11.7463Z" fill="#FFE62E"/>
</svg>
